<svg xmlns="http://www.w3.org/2000/svg" width="43.75" height="44" viewBox="0 0 43.75 44">
  <metadata><?xpacket begin="﻿" id="W5M0MpCehiHzreSzNTczkc9d"?>
<x:xmpmeta xmlns:x="adobe:ns:meta/" x:xmptk="Adobe XMP Core 5.6-c140 79.160451, 2017/05/06-01:08:21        ">
   <rdf:RDF xmlns:rdf="http://www.w3.org/1999/02/22-rdf-syntax-ns#">
      <rdf:Description rdf:about=""/>
   </rdf:RDF>
</x:xmpmeta>
                                                                                                    
                                                                                                    
                                                                                                    
                                                                                                    
                                                                                                    
                                                                                                    
                                                                                                    
                                                                                                    
                                                                                                    
                                                                                                    
                                                                                                    
                                                                                                    
                                                                                                    
                                                                                                    
                                                                                                    
                                                                                                    
                                                                                                    
                                                                                                    
                                                                                                    
                                                                                                    
                           
<?xpacket end="w"?></metadata>
<defs>
    <style>
      .cls-1 {
        fill: #71b64b;
        fill-rule: evenodd;
      }
    </style>
  </defs>
  <path id="_1" data-name="1" class="cls-1" d="M848.889,144.311a14.341,14.341,0,0,1-1.269-5.073c0-2.359,3.569-12.048,15.855-21.563a178.562,178.562,0,0,1,20.295-13.952s4.837-2.634,5.707-3.171a2.106,2.106,0,0,1,1.9,0s-8.819,7.146-11.416,9.513-13.767,12.3-16.489,15.22S851.169,140.782,848.889,144.311Zm1.9-30.441h0.634s2.57-6.977,6.342-6.977,4.837,6.105,5.708,9.514a33.914,33.914,0,0,1,.634,13.318,81.016,81.016,0,0,1-1.9,8.244l0.634,0.634a18.2,18.2,0,0,0,7.61-12.049c1.107-7.966.19-14.029-.634-16.489s-3.028-8.879-8.244-8.879S851.842,107.814,850.791,113.87Z" transform="translate(-847.625 -100.312)"/>
</svg>
