<svg xmlns="http://www.w3.org/2000/svg" width="51.562" height="32" viewBox="0 0 51.562 32">
  <metadata><?xpacket begin="﻿" id="W5M0MpCehiHzreSzNTczkc9d"?>
<x:xmpmeta xmlns:x="adobe:ns:meta/" x:xmptk="Adobe XMP Core 5.6-c140 79.160451, 2017/05/06-01:08:21        ">
   <rdf:RDF xmlns:rdf="http://www.w3.org/1999/02/22-rdf-syntax-ns#">
      <rdf:Description rdf:about=""/>
   </rdf:RDF>
</x:xmpmeta>
                                                                                                    
                                                                                                    
                                                                                                    
                                                                                                    
                                                                                                    
                                                                                                    
                                                                                                    
                                                                                                    
                                                                                                    
                                                                                                    
                                                                                                    
                                                                                                    
                                                                                                    
                                                                                                    
                                                                                                    
                                                                                                    
                                                                                                    
                                                                                                    
                                                                                                    
                                                                                                    
                           
<?xpacket end="w"?></metadata>
<defs>
    <style>
      .cls-1 {
        fill: #6fb844;
        fill-rule: evenodd;
      }
    </style>
  </defs>
  <path id="_2" data-name="2" class="cls-1" d="M887.467,235.79h-0.948a3.606,3.606,0,0,1-1.074-.159A5.219,5.219,0,0,1,880.817,239h-0.949a3.13,3.13,0,0,1-3.205-3.977L878.028,228h-10l0.583-3h10l0.778-4h-10l0.583-3h10l1.329-6.837a5.155,5.155,0,0,1,4.785-4.15h0.948a3.219,3.219,0,0,1,3.319,3.369,4.243,4.243,0,0,1,1.135-.159h0.949a3.286,3.286,0,0,1,3.239,4.152l-3.355,17.263A5.232,5.232,0,0,1,887.467,235.79Zm-0.189-24.56a0.835,0.835,0,0,0-.815-1.061h-0.939a1.329,1.329,0,0,0-1.227,1.061l-4.615,23.74a0.836,0.836,0,0,0,.815,1.061h0.939a1.329,1.329,0,0,0,1.227-1.061Zm5.409,3.017a0.847,0.847,0,0,0-.811-1.085h-0.938a1.346,1.346,0,0,0-1.232,1.085l-3.441,17.7a0.846,0.846,0,0,0,.809,1.086h0.939a1.346,1.346,0,0,0,1.232-1.086ZM847.561,235.79h0.948a4.256,4.256,0,0,0,1.136-.159A3.219,3.219,0,0,0,852.963,239h0.948a4.953,4.953,0,0,0,4.752-3.977L860.028,228h8l0.583-3h-8l0.778-4h8l0.583-3h-8l1.329-6.837a3.245,3.245,0,0,0-3.172-4.15h-0.948a5.221,5.221,0,0,0-4.629,3.369,3.606,3.606,0,0,0-1.074-.159H852.53a5.232,5.232,0,0,0-4.854,4.152l-3.355,17.263A3.287,3.287,0,0,0,847.561,235.79Zm9.737-24.56a1.329,1.329,0,0,1,1.227-1.061h0.939a0.836,0.836,0,0,1,.815,1.061l-4.615,23.74a1.329,1.329,0,0,1-1.227,1.061H853.5a0.835,0.835,0,0,1-.814-1.061Zm-6.582,3.017a1.347,1.347,0,0,1,1.232-1.085h0.939a0.846,0.846,0,0,1,.81,1.085l-3.442,17.7a1.346,1.346,0,0,1-1.232,1.086h-0.938a0.846,0.846,0,0,1-.81-1.086Z" transform="translate(-844.219 -207)"/>
</svg>
