<svg xmlns="http://www.w3.org/2000/svg" width="53.969" height="36" viewBox="0 0 53.969 36">
  <metadata><?xpacket begin="﻿" id="W5M0MpCehiHzreSzNTczkc9d"?>
<x:xmpmeta xmlns:x="adobe:ns:meta/" x:xmptk="Adobe XMP Core 5.6-c140 79.160451, 2017/05/06-01:08:21        ">
   <rdf:RDF xmlns:rdf="http://www.w3.org/1999/02/22-rdf-syntax-ns#">
      <rdf:Description rdf:about=""/>
   </rdf:RDF>
</x:xmpmeta>
                                                                                                    
                                                                                                    
                                                                                                    
                                                                                                    
                                                                                                    
                                                                                                    
                                                                                                    
                                                                                                    
                                                                                                    
                                                                                                    
                                                                                                    
                                                                                                    
                                                                                                    
                                                                                                    
                                                                                                    
                                                                                                    
                                                                                                    
                                                                                                    
                                                                                                    
                                                                                                    
                           
<?xpacket end="w"?></metadata>
<defs>
    <style>
      .cls-1 {
        fill: #6fb844;
        fill-rule: evenodd;
      }
    </style>
  </defs>
  <path id="_3" data-name="3" class="cls-1" d="M852.007,306h42a2.4,2.4,0,0,1,2.416,3l-5.839,30A3.822,3.822,0,0,1,887,342H845a2.4,2.4,0,0,1-2.416-3l5.839-30A3.822,3.822,0,0,1,852.007,306Zm1.416,3h38a1.6,1.6,0,0,1,1.611,2l-5.061,26a2.547,2.547,0,0,1-2.389,2h-38a1.6,1.6,0,0,1-1.611-2l5.061-26A2.548,2.548,0,0,1,853.423,309Zm4.077,9h27a1.5,1.5,0,0,1,0,3h-27A1.5,1.5,0,0,1,857.5,318Zm-2,9h27a1.5,1.5,0,0,1,0,3h-27A1.5,1.5,0,0,1,855.5,327Zm10.217-14a1.214,1.214,0,0,1,1.254,1.5l-3.83,19a1.965,1.965,0,0,1-1.858,1.5,1.214,1.214,0,0,1-1.254-1.5l3.83-19A1.965,1.965,0,0,1,865.717,313Zm13,0a1.213,1.213,0,0,1,1.253,1.5l-3.829,19a1.964,1.964,0,0,1-1.858,1.5,1.214,1.214,0,0,1-1.254-1.5l3.83-19A1.964,1.964,0,0,1,878.717,313Z" transform="translate(-842.531 -306)"/>
</svg>
