<svg xmlns="http://www.w3.org/2000/svg" width="53.969" height="36" viewBox="0 0 53.969 36">
  <metadata><?xpacket begin="﻿" id="W5M0MpCehiHzreSzNTczkc9d"?>
<x:xmpmeta xmlns:x="adobe:ns:meta/" x:xmptk="Adobe XMP Core 5.6-c140 79.160451, 2017/05/06-01:08:21        ">
   <rdf:RDF xmlns:rdf="http://www.w3.org/1999/02/22-rdf-syntax-ns#">
      <rdf:Description rdf:about=""/>
   </rdf:RDF>
</x:xmpmeta>
                                                                                                    
                                                                                                    
                                                                                                    
                                                                                                    
                                                                                                    
                                                                                                    
                                                                                                    
                                                                                                    
                                                                                                    
                                                                                                    
                                                                                                    
                                                                                                    
                                                                                                    
                                                                                                    
                                                                                                    
                                                                                                    
                                                                                                    
                                                                                                    
                                                                                                    
                                                                                                    
                           
<?xpacket end="w"?></metadata>
<defs>
    <style>
      .cls-1 {
        fill: #6fb844;
        fill-rule: evenodd;
      }
    </style>
  </defs>
  <path id="_4" data-name="4" class="cls-1" d="M852.007,407h42a2.4,2.4,0,0,1,2.416,3l-5.839,30A3.822,3.822,0,0,1,887,443H845a2.4,2.4,0,0,1-2.416-3l5.839-30A3.822,3.822,0,0,1,852.007,407Zm1.416,3h38a1.6,1.6,0,0,1,1.611,2l-5.061,26a2.547,2.547,0,0,1-2.389,2h-38a1.6,1.6,0,0,1-1.611-2l5.061-26A2.548,2.548,0,0,1,853.423,410ZM889,410l-19,30h18l7-28-2-3Zm-3.053,0L867,440h-2l18.947-30h2Zm-6,0L861,440h-1l18.947-30h1Z" transform="translate(-842.531 -407)"/>
</svg>
