<svg xmlns="http://www.w3.org/2000/svg" width="51.126" height="49.156" viewBox="0 0 51.126 49.156">
  <metadata><?xpacket begin="﻿" id="W5M0MpCehiHzreSzNTczkc9d"?>
<x:xmpmeta xmlns:x="adobe:ns:meta/" x:xmptk="Adobe XMP Core 5.6-c140 79.160451, 2017/05/06-01:08:21        ">
   <rdf:RDF xmlns:rdf="http://www.w3.org/1999/02/22-rdf-syntax-ns#">
      <rdf:Description rdf:about=""/>
   </rdf:RDF>
</x:xmpmeta>
                                                                                                    
                                                                                                    
                                                                                                    
                                                                                                    
                                                                                                    
                                                                                                    
                                                                                                    
                                                                                                    
                                                                                                    
                                                                                                    
                                                                                                    
                                                                                                    
                                                                                                    
                                                                                                    
                                                                                                    
                                                                                                    
                                                                                                    
                                                                                                    
                                                                                                    
                                                                                                    
                           
<?xpacket end="w"?></metadata>
<defs>
    <style>
      .cls-1 {
        fill-opacity: 0;
        stroke: #71b64b;
        stroke-linejoin: round;
        stroke-width: 3px;
        fill-rule: evenodd;
      }
    </style>
  </defs>
  <path id="_5" data-name="5" class="cls-1" d="M892.36,523.83a4.036,4.036,0,0,0,1.558-3.54,2.652,2.652,0,0,0-2.32-2.351l-11.285-1.695a1.173,1.173,0,0,1-.981-0.834l-3.139-10.566a2.7,2.7,0,0,0-2.711-1.925,4.307,4.307,0,0,0-3.458,1.925l-7.247,10.567a1.956,1.956,0,0,1-1.307.834l-11.943,1.7a4.431,4.431,0,0,0-3.235,2.351,3.183,3.183,0,0,0,.182,3.54l6.8,8.225a1.359,1.359,0,0,1,.176,1.35l-4.24,11.614a3.1,3.1,0,0,0,.206,2.8,3.142,3.142,0,0,0,4.077.84l11.453-5.484a1.547,1.547,0,0,1,1.414,0l9.322,5.484a2.957,2.957,0,0,0,1.522.4,4.236,4.236,0,0,0,2.881-1.242,4.04,4.04,0,0,0,1.294-2.8l0.274-11.614a1.856,1.856,0,0,1,.7-1.35Z" transform="translate(-844.312 -501.406)"/>
</svg>
