<svg xmlns="http://www.w3.org/2000/svg" width="41.5" height="44" viewBox="0 0 41.5 44">
  <metadata><?xpacket begin="﻿" id="W5M0MpCehiHzreSzNTczkc9d"?>
<x:xmpmeta xmlns:x="adobe:ns:meta/" x:xmptk="Adobe XMP Core 5.6-c140 79.160451, 2017/05/06-01:08:21        ">
   <rdf:RDF xmlns:rdf="http://www.w3.org/1999/02/22-rdf-syntax-ns#">
      <rdf:Description rdf:about=""/>
   </rdf:RDF>
</x:xmpmeta>
                                                                                                    
                                                                                                    
                                                                                                    
                                                                                                    
                                                                                                    
                                                                                                    
                                                                                                    
                                                                                                    
                                                                                                    
                                                                                                    
                                                                                                    
                                                                                                    
                                                                                                    
                                                                                                    
                                                                                                    
                                                                                                    
                                                                                                    
                                                                                                    
                                                                                                    
                                                                                                    
                           
<?xpacket end="w"?></metadata>
<defs>
    <style>
      .cls-1 {
        fill: #6fb844;
        fill-rule: evenodd;
      }
    </style>
  </defs>
  <path id="_6" data-name="6" class="cls-1" d="M860.276,605h28a2.4,2.4,0,0,1,2.417,3l-7.386,38a3.821,3.821,0,0,1-3.583,3h-28a2.4,2.4,0,0,1-2.416-3l7.386-38A3.82,3.82,0,0,1,860.276,605Zm1.417,3h24a1.6,1.6,0,0,1,1.611,2L880.7,644a2.549,2.549,0,0,1-2.389,2h-24a1.6,1.6,0,0,1-1.611-2l6.608-34A2.549,2.549,0,0,1,861.693,608Zm3.139,7h15a1.2,1.2,0,0,1,1.208,1.5h0a1.911,1.911,0,0,1-1.792,1.5h-15a1.2,1.2,0,0,1-1.208-1.5h0A1.911,1.911,0,0,1,864.832,615Zm-1.943,10h15a1.2,1.2,0,0,1,1.208,1.5,1.91,1.91,0,0,1-1.791,1.5h-15a1.2,1.2,0,0,1-1.209-1.5A1.91,1.91,0,0,1,862.889,625Zm-1.944,10h10a1.2,1.2,0,0,1,1.208,1.5,1.911,1.911,0,0,1-1.791,1.5h-10a1.2,1.2,0,0,1-1.209-1.5A1.911,1.911,0,0,1,860.945,635Z" transform="translate(-849.25 -605)"/>
</svg>
