<svg xmlns="http://www.w3.org/2000/svg" viewBox="0 0 32.25 44">
  <path d="M857.394,735.681a4.072,4.072,0,0,1,2.49-2.087,4.142,4.142,0,0,1,3.215.526l3.357,1.951c0.187-.178.376-0.348,0.557-0.515,0.262-.235.509-0.457,0.712-0.675a30.356,30.356,0,0,0,5.228-8.243,18.011,18.011,0,0,0,1.312-4.231c-0.856-.449-1.669-0.938-2.458-1.405-0.3-.174-0.6-0.356-0.895-0.529a4.05,4.05,0,0,1-1.549-5.872l1.679-2.94c0.191-.333.388-0.678,0.568-1.018,0.365-.663.75-1.35,1.162-2.007a4.129,4.129,0,0,1,2.482-2.012,4.2,4.2,0,0,1,3.183.471l0.021,0.012,3.621,2.134a6.385,6.385,0,0,1,2.862,3.45,15.558,15.558,0,0,1,.588,6.587,38.259,38.259,0,0,1-3.564,12.574,41.416,41.416,0,0,1-10.4,13.988,21.228,21.228,0,0,1-6.8,4.216c-0.173.056-.356,0.115-0.524,0.16a6.472,6.472,0,0,1-5.4-.786c-0.013-.015-0.032-0.019-0.045-0.034a19.978,19.978,0,0,0-1.874-1.136c-0.453-.249-0.918-0.514-1.38-0.8a4.368,4.368,0,0,1-2.042-2.591,4.271,4.271,0,0,1,.525-3.262Zm-0.647,9.752c0.009,0,.011.006,0,0,0.422,0.267.843,0.5,1.3,0.756a22.843,22.843,0,0,1,2.067,1.257,4.14,4.14,0,0,0,3.512.49c0.126-.034.26-0.07,0.384-0.113a18.849,18.849,0,0,0,6.021-3.767,39.1,39.1,0,0,0,9.8-13.178,36.024,36.024,0,0,0,3.358-11.817,12.685,12.685,0,0,0-.461-5.567,4.013,4.013,0,0,0-1.823-2.205l-3.626-2.114a1.952,1.952,0,0,0-1.434-.256,1.873,1.873,0,0,0-1.069.927l-0.018.033c-0.385.622-.739,1.255-1.11,1.929-0.189.343-.386,0.687-0.58,1.04l-1.68,2.94a1.683,1.683,0,0,0,.694,2.63c0.308,0.18.608,0.362,0.914,0.533,0.9,0.538,1.748,1.034,2.653,1.5a0.19,0.19,0,0,1,.053.031,1.8,1.8,0,0,1,.945,1.807c0,0.028,0,.055,0,0.083a19.452,19.452,0,0,1-1.531,5.209l-0.006.011a32.406,32.406,0,0,1-5.643,8.883,12.006,12.006,0,0,1-.883.849c-0.261.235-.509,0.457-0.712,0.676-0.029.026-.056,0.061-0.085,0.087a1.875,1.875,0,0,1-.775.438,1.843,1.843,0,0,1-1.43-.238l-3.636-2.121a1.942,1.942,0,0,0-1.435-.292,1.785,1.785,0,0,0-1.045.948l-0.012.022-3.391,5.933A1.745,1.745,0,0,0,856.747,745.433Z" transform="translate(-853.375 -706.5)"/>
</svg>
